<?xml version="1.0" encoding="UTF-8" standalone="no"?>
<svg
   xmlns:dc="http://purl.org/dc/elements/1.1/"
   xmlns:cc="http://creativecommons.org/ns#"
   xmlns:rdf="http://www.w3.org/1999/02/22-rdf-syntax-ns#"
   xmlns:svg="http://www.w3.org/2000/svg"
   xmlns="http://www.w3.org/2000/svg"
   xmlns:sodipodi="http://sodipodi.sourceforge.net/DTD/sodipodi-0.dtd"
   xmlns:inkscape="http://www.inkscape.org/namespaces/inkscape"
   version="1.1"
   id="Layer_1"
   x="0px"
   y="0px"
   viewBox="0 0 800.00002 240"
   xml:space="preserve"
   sodipodi:docname="DataJet_logo_blue_black.svg"
   inkscape:version="1.0.2 (e86c870879, 2021-01-15)"
   inkscape:export-filename="/home/nick/Documents/temp/DataJet_logo_blue_black.png"
   inkscape:export-xdpi="96"
   inkscape:export-ydpi="96"
   width="800"
   height="240"><metadata
   id="metadata961"><rdf:RDF><cc:Work
       rdf:about=""><dc:format>image/svg+xml</dc:format><dc:type
         rdf:resource="http://purl.org/dc/dcmitype/StillImage" /><dc:title></dc:title></cc:Work></rdf:RDF></metadata><defs
   id="defs959">
	
	
	
	
	
	
	
	
	
	
	
	
	
	
	
	
</defs><sodipodi:namedview
   pagecolor="#ffffff"
   bordercolor="#666666"
   borderopacity="1"
   objecttolerance="10"
   gridtolerance="10"
   guidetolerance="10"
   inkscape:pageopacity="0"
   inkscape:pageshadow="2"
   inkscape:window-width="1533"
   inkscape:window-height="974"
   id="namedview957"
   showgrid="false"
   inkscape:zoom="0.89588435"
   inkscape:cx="278.75281"
   inkscape:cy="124.183"
   inkscape:window-x="26"
   inkscape:window-y="23"
   inkscape:window-maximized="0"
   inkscape:current-layer="Layer_1"
   inkscape:document-rotation="0" />
<g
   id="g898"
   transform="matrix(1.4799559,0,0,1.4799559,-9.514627,-58.324818)"><path
     d="m 91.489249,60.188004 c 10.437221,0 19.724131,2.131617 27.863711,6.391886 8.13809,4.261752 14.45734,10.245993 18.95775,17.952727 4.49893,7.708207 6.75061,16.372533 6.75061,25.995943 0,9.81463 -2.26058,18.51602 -6.78619,26.10416 -4.52413,7.58814 -10.95159,13.46417 -19.2809,17.62957 -8.32932,4.16688 -17.88157,6.2481 -28.653801,6.2481 H 49.479494 V 60.188004 Z m -2.011547,85.169816 c 10.723308,0 19.328348,-3.21966 25.816578,-9.65898 6.48676,-6.43784 9.73014,-14.87685 9.73014,-25.31406 0,-10.819666 -3.2671,-19.363926 -9.80277,-25.63723 -6.53419,-6.270331 -15.331931,-9.40698 -26.390251,-9.40698 h -19.96427 v 70.01577 h 20.610573 z"
     id="path924"
     style="fill:#3591cf;fill-opacity:1;stroke-width:1.48235" /><path
     d="m 180.61397,92.145954 c 8.61689,0 15.2,1.8307 19.74785,5.49359 4.54784,3.662866 6.82325,8.772536 6.82325,15.331926 v 32.81772 c 0,2.53778 1.02874,3.80519 3.08773,3.80519 0.86124,0 2.06936,-0.37059 3.62582,-1.11325 1.55498,-0.74117 2.86093,-1.59056 3.91488,-2.54964 v 10.19707 c -6.17695,3.78296 -11.82617,5.67295 -16.94917,5.67295 -3.15888,0 -5.58994,-0.52623 -7.28871,-1.5787 -1.69877,-1.05247 -2.88465,-2.92022 -3.55467,-5.60179 -6.75061,4.78798 -13.52495,7.18198 -20.32151,7.18198 -4.8369,0 -8.98896,-1.62763 -12.45914,-4.88286 -3.47315,-3.25524 -5.2075,-7.15678 -5.2075,-11.70462 0,-5.79154 1.72398,-10.36458 5.17044,-13.71617 3.44646,-3.35011 9.47962,-6.27034 18.09651,-8.76068 l 14.29132,-4.16541 v -3.08772 c 0,-6.55791 -3.97566,-9.83835 -11.92104,-9.83835 -4.06905,0 -8.11586,0.9324 -12.13747,2.80015 -4.02162,1.86777 -7.6845,4.62048 -10.98717,8.25817 v -15.87152 c 7.32428,-5.791526 16.0153,-8.688036 26.06858,-8.688036 z m -10.77222,50.410226 c 0,2.44143 0.77674,4.40554 2.3332,5.88937 1.55499,1.48532 3.48353,2.22649 5.77969,2.22649 3.87782,0 7.75564,-1.76992 11.63495,-5.31422 v -17.66514 c -4.93177,1.67653 -8.79774,3.25523 -11.59789,4.73906 -2.80016,1.48383 -4.85914,2.99287 -6.17547,4.52413 -1.31632,1.53275 -1.97448,3.40051 -1.97448,5.60031 z"
     id="path926"
     style="fill:#3591cf;fill-opacity:1;stroke-width:1.48235" /><path
     d="m 244.40832,75.629628 h 1.43639 v 17.808936 h 22.98085 v 13.357446 h -22.98085 v 30.95143 c 0,3.0151 0.90868,5.45802 2.73049,7.32429 1.81884,1.86627 4.3077,2.80015 7.46807,2.80015 4.11648,0 8.85703,-1.48235 14.21869,-4.45149 v 14.14605 c -6.36817,2.82536 -12.35093,4.23656 -17.95272,4.23656 -7.56591,0 -13.46418,-2.0575 -17.70073,-6.17547 -4.23655,-4.11648 -6.35483,-9.69456 -6.35483,-16.73274 v -32.09878 h -10.48465 v -2.87279 z"
     id="path928"
     style="fill:#3591cf;fill-opacity:1;stroke-width:1.48235" /><path
     d="m 304.44343,92.145954 c 8.61689,0 15.2,1.8307 19.74784,5.49359 4.54785,3.662866 6.82325,8.772536 6.82325,15.331926 v 32.81772 c 0,2.53778 1.02876,3.80519 3.08773,3.80519 0.86125,0 2.06937,-0.37059 3.62583,-1.11325 1.55499,-0.74117 2.86093,-1.59056 3.91489,-2.54964 v 10.19707 c -6.17695,3.78296 -11.82618,5.67295 -16.94918,5.67295 -3.15888,0 -5.58994,-0.52623 -7.28871,-1.5787 -1.69877,-1.05247 -2.88464,-2.92022 -3.55467,-5.60179 -6.75061,4.78798 -13.52494,7.18198 -20.32151,7.18198 -4.8369,0 -8.98897,-1.62763 -12.45914,-4.88286 -3.47315,-3.25524 -5.20749,-7.15678 -5.20749,-11.70462 0,-5.79154 1.72397,-10.36458 5.17043,-13.71617 3.44646,-3.35011 9.47962,-6.27034 18.09651,-8.76068 l 14.29132,-4.16541 v -3.08772 c 0,-6.55791 -3.97566,-9.83835 -11.92105,-9.83835 -4.06904,0 -8.11586,0.9324 -12.13747,2.80015 -4.02161,1.86777 -7.68449,4.62048 -10.98717,8.25817 v -15.87152 c 7.3243,-5.791526 16.0153,-8.688036 26.06859,-8.688036 z M 293.6712,142.55618 c 0,2.44143 0.77676,4.40554 2.33322,5.88937 1.55498,1.48532 3.48351,2.22649 5.77968,2.22649 3.87782,0 7.75564,-1.76992 11.63495,-5.31422 v -17.66514 c -4.93177,1.67653 -8.79774,3.25523 -11.5979,4.73906 -2.80015,1.48383 -4.85913,2.99287 -6.17546,4.52413 -1.31633,1.53275 -1.97449,3.40051 -1.97449,5.60031 z"
     id="path930"
     style="fill:#3591cf;fill-opacity:1;stroke-width:1.48235" /><path
     d="m 373.38301,60.188004 v 96.515716 c 0,10.7233 -2.8728,19.30462 -8.61689,25.74394 -5.74411,6.43932 -13.35745,9.66047 -22.83558,9.66047 -0.67002,0 -1.30447,0 -1.90185,0 -0.59887,0 -1.23332,-0.0489 -1.90334,-0.14528 l -1.36524,-16.73126 c 11.49117,0 17.23526,-6.7269 17.23526,-20.17921 V 60.188004 Z"
     id="path932"
     style="fill:#000000;fill-opacity:1;stroke-width:1.48235" /><path
     d="m 417.79565,92.145954 c 9.86058,0 17.66515,3.16037 23.41073,9.479616 5.7441,6.31926 8.61689,15.05623 8.61689,26.21089 v 2.65637 h -47.46776 c 0.71746,5.98572 2.9558,10.59138 6.71355,13.82438 3.75776,3.23153 8.91633,4.84728 15.47573,4.84728 4.21283,0 8.26853,-0.72932 12.17156,-2.19091 3.90154,-1.45863 7.93649,-3.67474 12.1004,-6.64092 v 13.14102 c -7.85199,5.55436 -17.37904,8.32932 -28.58115,8.32932 -10.58101,0 -19.22162,-3.1826 -25.92332,-9.55078 -6.70318,-6.36668 -10.05328,-14.83978 -10.05328,-25.42079 0,-10.19707 3.09959,-18.52787 9.29877,-24.99092 6.20066,-6.463036 14.27946,-9.694556 24.23788,-9.694556 z m 15.43865,27.647286 c -0.47879,-4.88285 -1.96262,-8.70139 -4.45148,-11.4541 -2.49035,-2.75273 -5.91309,-4.12983 -10.26972,-4.12983 -4.45297,0 -8.03284,1.31781 -10.73664,3.95046 -2.70381,2.63265 -4.41592,6.51195 -5.13337,11.63347 z"
     id="path934"
     style="fill:#000000;fill-opacity:1;stroke-width:1.48235" /><path
     d="m 482.06583,75.629628 h 1.4364 v 17.808936 h 22.98085 v 13.357446 h -22.98085 v 30.95143 c 0,3.0151 0.90867,5.45802 2.73048,7.32429 1.81884,1.86627 4.3077,2.80015 7.46808,2.80015 4.11647,0 8.85702,-1.48235 14.21868,-4.45149 v 14.14605 c -6.36817,2.82536 -12.35093,4.23656 -17.95272,4.23656 -7.56591,0 -13.46418,-2.0575 -17.70072,-6.17547 -4.23656,-4.11648 -6.35483,-9.69456 -6.35483,-16.73274 v -32.09878 h -10.48465 v -2.87279 z"
     id="path936"
     style="fill:#000000;fill-opacity:1;stroke-width:1.48235" /></g>
</svg>
