<svg width="1272" height="329" viewBox="0 0 1272 329" fill="none" xmlns="http://www.w3.org/2000/svg">
<path d="M353.361 67.2625C395.649 140.534 354.553 243.468 261.57 297.171C168.587 350.873 58.928 335.009 16.6395 261.738C-25.6491 188.466 15.4469 85.5323 108.43 31.8295C201.413 -21.8733 311.072 -6.00941 353.361 67.2625Z" fill="#009CCC"/>
<path d="M130.32 119.28C130.16 120.347 129.813 121.36 129.28 122.32C128.8 123.28 128.24 124.213 127.6 125.12L68.72 207.92H118L115.44 228H32.24L33.2 220.32C33.36 219.253 33.7067 218.24 34.24 217.28C34.72 216.32 35.28 215.387 35.92 214.48L94.88 131.52H48.24L50.8 111.44H131.44L130.32 119.28ZM197.185 183.6L191.505 150.32C191.078 148.24 190.598 145.787 190.065 142.96C189.585 140.08 189.105 136.987 188.625 133.68C187.345 137.04 186.065 140.16 184.785 143.04C183.558 145.867 182.492 148.347 181.585 150.48L167.905 183.6H197.185ZM231.825 228H211.665C209.425 228 207.665 227.493 206.385 226.48C205.158 225.413 204.305 224.027 203.825 222.32L200.225 201.36H160.625L151.985 222.32C151.238 223.76 150.038 225.067 148.385 226.24C146.785 227.413 144.945 228 142.865 228H122.385L178.065 111.44H204.785L231.825 228ZM348.784 162.24C348.784 168.533 348.037 174.56 346.544 180.32C345.104 186.08 343.024 191.44 340.304 196.4C337.637 201.36 334.384 205.867 330.544 209.92C326.757 213.973 322.49 217.44 317.744 220.32C312.997 223.147 307.85 225.36 302.304 226.96C296.757 228.507 290.917 229.28 284.784 229.28C277.104 229.28 270.197 227.947 264.064 225.28C257.984 222.56 252.81 218.88 248.544 214.24C244.277 209.547 240.997 204.053 238.704 197.76C236.464 191.413 235.344 184.587 235.344 177.28C235.344 170.987 236.064 164.96 237.504 159.2C238.997 153.387 241.077 148 243.744 143.04C246.464 138.08 249.744 133.573 253.584 129.52C257.424 125.467 261.717 122.027 266.464 119.2C271.21 116.32 276.357 114.107 281.904 112.56C287.45 110.96 293.317 110.16 299.504 110.16C307.13 110.16 313.984 111.52 320.064 114.24C326.197 116.907 331.37 120.587 335.584 125.28C339.85 129.973 343.104 135.493 345.344 141.84C347.637 148.187 348.784 154.987 348.784 162.24ZM322.064 162.88C322.064 158.08 321.477 153.733 320.304 149.84C319.184 145.893 317.504 142.533 315.264 139.76C313.077 136.933 310.384 134.773 307.184 133.28C303.984 131.733 300.357 130.96 296.304 130.96C290.97 130.96 286.197 132.08 281.984 134.32C277.77 136.507 274.17 139.6 271.184 143.6C268.25 147.6 265.984 152.427 264.384 158.08C262.837 163.68 262.064 169.893 262.064 176.72C262.064 181.52 262.624 185.867 263.744 189.76C264.864 193.653 266.49 196.987 268.624 199.76C270.81 202.533 273.504 204.693 276.704 206.24C279.904 207.733 283.557 208.48 287.664 208.48C292.997 208.48 297.77 207.387 301.984 205.2C306.25 203.013 309.85 199.92 312.784 195.92C315.77 191.92 318.064 187.12 319.664 181.52C321.264 175.92 322.064 169.707 322.064 162.88Z" fill="white"/>
<path d="M426.346 207.84C429.28 207.84 431.813 207.627 433.946 207.2C436.133 206.72 438 206.133 439.546 205.44C441.093 204.747 442.4 204 443.466 203.2C444.533 202.347 445.493 201.573 446.346 200.88C447.2 200.187 448 199.627 448.746 199.2C449.493 198.72 450.293 198.48 451.146 198.48C452 198.48 452.693 198.64 453.226 198.96C453.813 199.227 454.24 199.547 454.506 199.92L463.626 210.88C458.56 216.907 452.533 221.493 445.546 224.64C438.613 227.733 430.72 229.28 421.866 229.28C414.506 229.28 407.973 228 402.266 225.44C396.613 222.827 391.84 219.253 387.946 214.72C384.053 210.187 381.093 204.827 379.066 198.64C377.093 192.4 376.106 185.68 376.106 178.48C376.106 171.813 376.853 165.493 378.346 159.52C379.84 153.547 381.946 148.027 384.666 142.96C387.386 137.893 390.64 133.333 394.426 129.28C398.266 125.227 402.506 121.787 407.146 118.96C411.786 116.133 416.773 113.973 422.106 112.48C427.44 110.933 433.013 110.16 438.826 110.16C443.2 110.16 447.173 110.587 450.746 111.44C454.373 112.24 457.626 113.387 460.506 114.88C463.44 116.32 466.053 118.053 468.346 120.08C470.64 122.107 472.64 124.347 474.346 126.8L465.226 137.36C464.586 138.107 463.84 138.773 462.986 139.36C462.133 139.947 461.013 140.24 459.626 140.24C458.72 140.24 457.893 140.027 457.146 139.6C456.4 139.173 455.626 138.667 454.826 138.08C454.08 137.44 453.226 136.747 452.266 136C451.306 135.253 450.16 134.587 448.826 134C447.493 133.36 445.893 132.827 444.026 132.4C442.213 131.973 440.053 131.76 437.546 131.76C432.64 131.76 428.053 132.8 423.786 134.88C419.573 136.96 415.893 139.947 412.746 143.84C409.653 147.68 407.226 152.373 405.466 157.92C403.706 163.413 402.826 169.573 402.826 176.4C402.826 181.36 403.413 185.787 404.586 189.68C405.813 193.573 407.466 196.88 409.546 199.6C411.626 202.267 414.106 204.32 416.986 205.76C419.866 207.147 422.986 207.84 426.346 207.84ZM586.376 111.44L571.976 228H545.736L551.896 178.4H509.816L503.656 228H477.416L491.816 111.44H518.056L511.976 160.64H554.056L560.136 111.44H586.376ZM705.358 111.44L690.958 228H677.358C675.331 228 673.678 227.68 672.398 227.04C671.171 226.347 669.998 225.227 668.878 223.68L628.158 151.68C627.998 154.773 627.758 157.547 627.438 160L619.438 228H596.398L610.798 111.44H624.558C625.678 111.44 626.611 111.493 627.358 111.6C628.158 111.653 628.851 111.84 629.438 112.16C630.024 112.427 630.558 112.827 631.038 113.36C631.518 113.893 632.024 114.587 632.558 115.44L673.438 187.44C673.598 185.573 673.758 183.787 673.918 182.08C674.078 180.373 674.264 178.773 674.478 177.28L682.318 111.44H705.358ZM741.619 228H715.379L729.619 111.44H755.859L741.619 228ZM800.479 159.12H804.319C808.052 159.12 810.879 157.84 812.799 155.28L840.479 116.64C842.025 114.613 843.732 113.253 845.599 112.56C847.519 111.813 849.759 111.44 852.319 111.44H874.879L838.239 159.04C835.732 162.133 833.065 164.4 830.239 165.84C832.052 166.587 833.625 167.6 834.959 168.88C836.345 170.16 837.545 171.84 838.559 173.92L863.199 228H839.999C838.505 228 837.252 227.893 836.239 227.68C835.225 227.467 834.345 227.147 833.599 226.72C832.905 226.293 832.319 225.787 831.839 225.2C831.359 224.613 830.932 223.947 830.559 223.2L812.479 182.24C811.839 180.693 810.852 179.627 809.519 179.04C808.185 178.4 806.399 178.08 804.159 178.08H798.159L791.999 228H766.079L780.319 111.44H806.399L800.479 159.12ZM962.265 207.84C965.198 207.84 967.732 207.627 969.865 207.2C972.052 206.72 973.918 206.133 975.465 205.44C977.012 204.747 978.318 204 979.385 203.2C980.452 202.347 981.412 201.573 982.265 200.88C983.118 200.187 983.918 199.627 984.665 199.2C985.412 198.72 986.212 198.48 987.065 198.48C987.918 198.48 988.612 198.64 989.145 198.96C989.732 199.227 990.158 199.547 990.425 199.92L999.545 210.88C994.478 216.907 988.452 221.493 981.465 224.64C974.532 227.733 966.638 229.28 957.785 229.28C950.425 229.28 943.892 228 938.185 225.44C932.532 222.827 927.758 219.253 923.865 214.72C919.972 210.187 917.012 204.827 914.985 198.64C913.012 192.4 912.025 185.68 912.025 178.48C912.025 171.813 912.772 165.493 914.265 159.52C915.758 153.547 917.865 148.027 920.585 142.96C923.305 137.893 926.558 133.333 930.345 129.28C934.185 125.227 938.425 121.787 943.065 118.96C947.705 116.133 952.692 113.973 958.025 112.48C963.358 110.933 968.932 110.16 974.745 110.16C979.118 110.16 983.092 110.587 986.665 111.44C990.292 112.24 993.545 113.387 996.425 114.88C999.358 116.32 1001.97 118.053 1004.27 120.08C1006.56 122.107 1008.56 124.347 1010.27 126.8L1001.15 137.36C1000.51 138.107 999.758 138.773 998.905 139.36C998.052 139.947 996.932 140.24 995.545 140.24C994.638 140.24 993.812 140.027 993.065 139.6C992.318 139.173 991.545 138.667 990.745 138.08C989.998 137.44 989.145 136.747 988.185 136C987.225 135.253 986.078 134.587 984.745 134C983.412 133.36 981.812 132.827 979.945 132.4C978.132 131.973 975.972 131.76 973.465 131.76C968.558 131.76 963.972 132.8 959.705 134.88C955.492 136.96 951.812 139.947 948.665 143.84C945.572 147.68 943.145 152.373 941.385 157.92C939.625 163.413 938.745 169.573 938.745 176.4C938.745 181.36 939.332 185.787 940.505 189.68C941.732 193.573 943.385 196.88 945.465 199.6C947.545 202.267 950.025 204.32 952.905 205.76C955.785 207.147 958.905 207.84 962.265 207.84ZM1124.6 162.24C1124.6 168.533 1123.86 174.56 1122.36 180.32C1120.92 186.08 1118.84 191.44 1116.12 196.4C1113.46 201.36 1110.2 205.867 1106.36 209.92C1102.58 213.973 1098.31 217.44 1093.56 220.32C1088.82 223.147 1083.67 225.36 1078.12 226.96C1072.58 228.507 1066.74 229.28 1060.6 229.28C1052.92 229.28 1046.02 227.947 1039.88 225.28C1033.8 222.56 1028.63 218.88 1024.36 214.24C1020.1 209.547 1016.82 204.053 1014.52 197.76C1012.28 191.413 1011.16 184.587 1011.16 177.28C1011.16 170.987 1011.88 164.96 1013.32 159.2C1014.82 153.387 1016.9 148 1019.56 143.04C1022.28 138.08 1025.56 133.573 1029.4 129.52C1033.24 125.467 1037.54 122.027 1042.28 119.2C1047.03 116.32 1052.18 114.107 1057.72 112.56C1063.27 110.96 1069.14 110.16 1075.32 110.16C1082.95 110.16 1089.8 111.52 1095.88 114.24C1102.02 116.907 1107.19 120.587 1111.4 125.28C1115.67 129.973 1118.92 135.493 1121.16 141.84C1123.46 148.187 1124.6 154.987 1124.6 162.24ZM1097.88 162.88C1097.88 158.08 1097.3 153.733 1096.12 149.84C1095 145.893 1093.32 142.533 1091.08 139.76C1088.9 136.933 1086.2 134.773 1083 133.28C1079.8 131.733 1076.18 130.96 1072.12 130.96C1066.79 130.96 1062.02 132.08 1057.8 134.32C1053.59 136.507 1049.99 139.6 1047 143.6C1044.07 147.6 1041.8 152.427 1040.2 158.08C1038.66 163.68 1037.88 169.893 1037.88 176.72C1037.88 181.52 1038.44 185.867 1039.56 189.76C1040.68 193.653 1042.31 196.987 1044.44 199.76C1046.63 202.533 1049.32 204.693 1052.52 206.24C1055.72 207.733 1059.38 208.48 1063.48 208.48C1068.82 208.48 1073.59 207.387 1077.8 205.2C1082.07 203.013 1085.67 199.92 1088.6 195.92C1091.59 191.92 1093.88 187.12 1095.48 181.52C1097.08 175.92 1097.88 169.707 1097.88 162.88ZM1271.44 111.44L1257.04 228H1234.16L1242.32 160.16C1242.54 158.72 1242.8 157.147 1243.12 155.44C1243.44 153.68 1243.82 151.867 1244.24 150L1209.2 210.16C1208.08 211.92 1206.67 213.253 1204.96 214.16C1203.31 215.067 1201.47 215.52 1199.44 215.52H1195.92C1193.9 215.52 1192.14 215.067 1190.64 214.16C1189.15 213.253 1188.08 211.92 1187.44 210.16L1166.96 149.76C1166.91 151.573 1166.83 153.333 1166.72 155.04C1166.62 156.747 1166.48 158.32 1166.32 159.76L1158.32 228H1135.28L1149.68 111.44H1169.52C1170.64 111.44 1171.58 111.493 1172.32 111.6C1173.12 111.707 1173.82 111.893 1174.4 112.16C1174.99 112.427 1175.52 112.827 1176 113.36C1176.54 113.893 1177.1 114.587 1177.68 115.44L1198.16 176.8C1198.75 178.453 1199.28 180.16 1199.76 181.92C1200.24 183.627 1200.7 185.36 1201.12 187.12C1201.92 185.36 1202.78 183.627 1203.68 181.92C1204.59 180.16 1205.58 178.453 1206.64 176.8L1242.32 115.44C1243.12 114.587 1243.84 113.893 1244.48 113.36C1245.12 112.827 1245.76 112.427 1246.4 112.16C1247.04 111.893 1247.76 111.707 1248.56 111.6C1249.36 111.493 1250.32 111.44 1251.44 111.44H1271.44Z" fill="#212121"/>
<path d="M864 170.692C864 179.867 870.239 187.075 879.943 187.075C891.727 187.075 900.046 179.211 900.046 167.416C900.046 157.586 893.114 151.033 883.409 151.033C871.625 150.378 864 159.552 864 170.692Z" fill="#009CCC"/>
</svg>
